<?xml version="1.0" standalone="no"?>
<!DOCTYPE svg PUBLIC "-//W3C//DTD SVG 20010904//EN"
 "http://www.w3.org/TR/2001/REC-SVG-20010904/DTD/svg10.dtd">
<svg version="1.0" xmlns="http://www.w3.org/2000/svg"
 width="2048.000000pt" height="2048.000000pt" viewBox="0 0 2048.000000 2048.000000"
 preserveAspectRatio="xMidYMid meet">
<metadata>
Created by potrace 1.11, written by Peter Selinger 2001-2013
</metadata>
<g transform="translate(0.000000,2048.000000) scale(0.100000,-0.100000)"
fill="#000000" stroke="none">
<path d="M10685 16520 c3 -6 -1 -13 -9 -16 -9 -3 -14 -10 -11 -15 3 -4 -4 -13
-15 -19 -11 -6 -18 -15 -15 -21 4 -5 1 -8 -7 -7 -7 2 -12 -3 -10 -9 1 -7 -1
-12 -5 -12 -22 4 -32 -3 -26 -16 3 -9 2 -15 -3 -14 -24 4 -36 -2 -30 -16 5
-13 -5 -20 -26 -16 -5 0 -8 -5 -8 -13 0 -8 -7 -17 -16 -20 -8 -3 -12 -10 -9
-16 3 -5 0 -10 -7 -10 -7 0 -22 -11 -32 -25 -10 -13 -22 -23 -26 -20 -4 2 -12
-7 -18 -20 -7 -14 -16 -25 -22 -25 -6 0 -8 -4 -5 -10 3 -5 -3 -10 -15 -10 -12
0 -18 -5 -15 -10 3 -6 -1 -13 -9 -16 -8 -3 -18 -14 -21 -25 -4 -10 -9 -18 -13
-16 -10 3 -58 -46 -54 -57 2 -5 -4 -6 -12 -3 -9 4 -15 3 -15 -1 3 -18 -2 -32
-11 -32 -15 0 -50 -33 -44 -42 3 -4 -2 -8 -11 -8 -9 0 -13 -4 -10 -10 3 -5 -1
-10 -10 -10 -9 0 -13 -4 -10 -10 3 -5 1 -10 -5 -10 -6 0 -23 -14 -37 -30 -13
-17 -29 -28 -34 -25 -5 4 -6 -2 -2 -11 4 -12 3 -15 -5 -10 -7 4 -12 1 -12 -7
0 -14 -27 -32 -42 -29 -4 1 -5 -4 -3 -11 3 -6 -8 -21 -25 -32 -16 -11 -30 -23
-30 -27 0 -11 -50 -58 -62 -58 -6 0 -9 -2 -6 -5 7 -7 -180 -195 -194 -195 -6
0 -8 -3 -5 -7 4 -3 -6 -17 -21 -31 -15 -14 -26 -30 -24 -35 1 -5 -2 -6 -6 -3
-5 3 -20 -8 -32 -24 -12 -16 -28 -27 -34 -23 -6 3 -8 3 -4 -1 3 -4 -7 -20 -23
-35 -16 -15 -25 -32 -21 -36 4 -5 2 -5 -5 -1 -7 4 -19 -4 -29 -19 -9 -13 -20
-22 -25 -19 -5 3 -8 1 -7 -4 2 -5 -28 -40 -67 -78 -38 -38 -69 -72 -67 -76 1
-5 -3 -8 -8 -8 -10 0 -92 -79 -97 -93 -2 -4 -5 -7 -8 -7 -10 0 -45 -40 -45
-52 0 -6 -3 -9 -6 -5 -7 7 -15 -1 -57 -51 -15 -19 -27 -30 -27 -25 0 4 -9 -5
-20 -22 -11 -16 -20 -25 -20 -20 -1 6 -8 -2 -16 -17 -8 -16 -22 -28 -30 -28
-8 0 -13 -4 -9 -9 3 -5 -4 -13 -16 -16 -11 -4 -18 -9 -15 -12 7 -7 -33 -43
-47 -43 -6 0 -8 -3 -4 -6 3 -3 -25 -35 -61 -71 -37 -36 -66 -70 -64 -75 1 -5
-1 -7 -6 -4 -10 6 -77 -64 -74 -76 2 -8 -13 -12 -30 -9 -5 0 -8 -3 -8 -9 0
-14 -37 -50 -44 -43 -3 4 -6 1 -6 -6 0 -16 -55 -71 -71 -71 -7 0 -10 -3 -6 -6
3 -3 -12 -24 -34 -46 -21 -22 -39 -44 -39 -49 0 -6 -4 -8 -8 -5 -10 6 -42 -29
-42 -45 0 -5 -3 -8 -7 -6 -10 6 -34 -19 -26 -27 4 -3 2 -6 -4 -6 -5 0 -20 -9
-33 -20 -13 -11 -20 -20 -16 -20 4 0 1 -6 -6 -14 -7 -8 -16 -12 -20 -10 -4 2
-9 -5 -13 -16 -4 -11 -11 -18 -16 -15 -5 4 -9 2 -9 -2 0 -5 -7 -18 -16 -29 -8
-10 -12 -12 -8 -4 4 9 -2 7 -13 -5 -11 -11 -19 -21 -18 -23 4 -5 -98 -102
-108 -102 -6 0 -8 -2 -5 -5 7 -7 -180 -195 -194 -195 -6 0 -9 -3 -5 -6 8 -8
-326 -340 -338 -336 -5 2 -7 0 -3 -3 4 -4 -46 -61 -111 -126 -65 -65 -116
-121 -113 -124 3 -3 -2 -5 -12 -5 -9 0 -21 -11 -28 -25 -6 -13 -15 -22 -19
-19 -5 3 -9 -2 -9 -11 0 -9 -4 -13 -10 -10 -5 3 -10 3 -10 -2 -1 -4 -12 -21
-26 -38 -15 -16 -23 -24 -19 -16 6 9 4 12 -3 7 -7 -4 -12 -14 -12 -22 0 -8 -4
-12 -10 -9 -5 3 -10 -1 -10 -9 0 -8 -9 -18 -20 -21 -11 -4 -18 -10 -15 -15 3
-5 -11 -20 -32 -34 -21 -15 -34 -26 -30 -26 4 0 -16 -22 -43 -50 -27 -27 -54
-50 -60 -50 -5 0 -10 -4 -10 -9 0 -13 -127 -141 -133 -135 -2 3 -7 -7 -11 -20
-3 -14 -10 -25 -15 -23 -10 2 -51 -41 -51 -54 0 -5 -7 -6 -15 -3 -8 4 -15 1
-15 -7 0 -6 -22 -34 -50 -61 -27 -27 -50 -54 -50 -60 0 -6 -3 -9 -6 -5 -7 6
-54 -41 -54 -54 0 -4 -8 -10 -18 -13 -11 -4 -25 -17 -32 -31 -7 -13 -17 -22
-21 -20 -4 3 -10 -4 -14 -15 -3 -11 -9 -19 -13 -17 -4 1 -9 -2 -11 -8 -2 -5
-18 -20 -34 -32 -17 -13 -28 -23 -24 -23 4 0 -1 -8 -10 -18 -10 -11 -21 -17
-24 -16 -4 2 -13 -4 -20 -13 -8 -9 -9 -14 -4 -11 6 4 -84 -89 -200 -205 -115
-117 -209 -215 -207 -220 1 -4 -1 -6 -5 -5 -5 2 -46 -35 -93 -82 -47 -46 -88
-83 -93 -82 -4 1 -6 -2 -5 -7 2 -4 -29 -40 -69 -79 -39 -39 -69 -73 -65 -76 3
-3 -1 -6 -8 -6 -15 0 -60 -46 -52 -54 3 -3 0 -6 -6 -6 -6 0 -35 -25 -65 -55
-30 -30 -52 -55 -49 -55 3 0 -9 -11 -28 -25 -19 -14 -30 -25 -25 -25 4 0 -2
-9 -15 -20 -13 -11 -27 -20 -32 -20 -4 0 -7 -6 -6 -12 2 -7 -3 -12 -9 -10 -7
1 -13 -5 -13 -13 0 -8 -7 -15 -16 -15 -8 0 -13 -4 -9 -9 3 -5 -4 -12 -15 -16
-11 -3 -19 -9 -18 -13 3 -10 -160 -172 -172 -172 -5 0 -9 -3 -9 -7 4 -22 -3
-32 -16 -27 -10 4 -15 0 -15 -10 0 -9 -8 -20 -17 -23 -15 -6 -14 -7 3 -14 10
-3 25 -2 32 3 8 7 12 7 12 -1 0 -8 5 -9 18 -2 13 7 23 6 30 -1 7 -7 12 -8 12
-2 0 13 53 12 62 -1 5 -6 8 -5 8 2 0 14 26 13 49 -1 10 -7 13 -5 9 5 -4 11 6
14 53 12 32 0 63 -5 70 -9 7 -4 10 -3 6 2 -3 6 37 10 96 12 56 1 129 4 162 5
33 2 65 0 72 -5 7 -5 14 -5 18 2 4 6 15 8 26 5 11 -4 19 -2 19 6 0 8 5 8 17
-2 11 -10 14 -10 9 -1 -9 15 -1 15 25 2 14 -8 19 -7 19 1 0 8 4 9 13 0 8 -6
17 -8 20 -5 6 7 62 14 102 14 11 0 40 0 65 0 25 0 56 1 70 3 14 2 33 -1 44 -6
14 -7 16 -6 11 3 -6 10 -1 11 19 6 20 -5 26 -3 21 5 -5 8 -2 8 11 2 11 -5 30
-7 44 -6 14 1 78 4 143 7 65 2 121 7 124 10 3 3 14 1 24 -4 10 -6 20 -6 23 -2
3 5 30 8 60 7 34 -2 53 1 50 7 -4 6 3 5 14 -1 27 -14 35 -14 26 2 -5 8 -2 8 9
-2 13 -10 17 -10 17 -1 0 10 3 10 15 0 8 -7 15 -8 15 -3 0 5 20 9 45 8 28 -2
45 2 45 9 0 7 3 8 8 1 8 -12 22 -13 39 -2 6 4 14 3 18 -2 4 -7 15 -7 31 -1 17
7 23 7 19 0 -4 -7 3 -7 19 0 18 7 26 6 26 -1 0 -7 5 -8 13 -2 6 5 40 8 74 8
36 0 63 4 63 10 0 6 5 3 10 -5 7 -11 10 -11 10 -2 0 10 5 10 20 2 14 -7 20 -7
20 0 0 5 5 10 11 10 5 0 7 -5 3 -12 -5 -7 -3 -8 6 -3 8 5 55 10 105 12 49 1
111 4 138 6 30 3 47 0 47 -7 0 -7 3 -8 8 -1 8 12 81 14 100 2 8 -5 14 -2 18 8
6 13 8 14 15 3 7 -10 9 -8 10 7 l0 20 9 -20 c5 -11 9 -15 9 -9 1 8 12 9 36 4
19 -4 33 -4 30 0 -3 4 12 7 33 6 20 -1 40 3 44 9 5 6 8 4 8 -5 0 -13 1 -13 10
0 5 8 10 10 10 4 0 -10 57 -11 67 0 3 3 15 1 26 -5 13 -7 17 -8 13 -1 -7 12
33 10 53 -3 10 -6 12 -4 6 5 -6 9 -2 10 15 5 17 -5 21 -4 15 5 -6 9 -4 11 6 5
7 -5 26 -8 42 -7 20 2 27 -1 22 -10 -4 -7 -1 -6 7 2 8 10 26 15 45 13 18 -1
35 2 38 8 5 7 11 6 21 -2 8 -6 14 -8 14 -5 0 4 10 2 21 -5 15 -8 19 -8 15 0
-6 10 5 15 25 13 20 -3 80 -2 119 1 25 2 48 -1 52 -7 4 -6 12 -5 21 2 9 8 28
10 47 7 24 -4 30 -2 24 7 -6 9 -3 9 9 -1 15 -12 17 -11 17 3 0 16 1 16 17 0
11 -11 18 -13 21 -5 2 6 8 11 13 11 6 0 8 -3 6 -7 -3 -5 5 -8 18 -8 15 0 21 5
17 14 -4 10 -1 12 9 5 19 -12 52 -12 61 1 5 7 8 6 8 -1 0 -11 52 -10 71 1 5 4
9 1 9 -5 0 -7 6 -8 18 -1 11 6 24 6 35 0 11 -7 17 -7 17 0 0 5 13 7 29 5 16
-3 32 0 36 6 3 6 11 8 16 4 19 -11 59 -11 60 0 0 6 4 2 9 -9 8 -19 9 -19 9 -1
1 16 3 17 18 5 11 -10 14 -10 9 -1 -9 14 -9 14 32 3 21 -6 30 -6 26 0 -3 6 6
8 23 6 15 -2 34 0 41 6 7 6 12 6 12 0 0 -6 25 -8 58 -5 31 2 85 4 119 5 42 0
60 4 55 11 -3 6 7 3 22 -8 16 -10 26 -14 22 -8 -3 5 1 12 9 16 8 3 15 2 15 -3
0 -4 7 -8 15 -8 8 0 12 4 9 9 -3 4 -1 8 5 8 5 0 13 -5 16 -11 5 -6 11 -4 19 7
10 13 15 14 21 4 6 -9 4 -11 -5 -5 -9 5 -11 4 -6 -3 5 -8 13 -9 24 -3 9 4 25
7 34 6 10 -2 20 1 24 6 3 5 11 6 17 2 15 -9 87 -10 87 -1 0 6 41 2 67 -7 7 -2
15 0 19 6 4 6 12 5 22 -3 9 -8 13 -8 9 -2 -7 13 17 27 27 16 12 -11 36 -11 36
1 0 8 3 8 11 0 7 -7 21 -8 39 -3 18 5 32 4 40 -3 10 -9 12 -8 7 6 -5 13 -3 16
6 10 18 -12 81 -11 89 2 5 6 8 6 8 -2 0 -7 9 -10 20 -8 11 2 46 4 78 4 31 1
64 1 72 1 90 4 121 8 136 20 17 13 18 13 7 0 -9 -12 -7 -15 12 -15 13 0 21 3
19 7 -3 4 2 5 11 2 8 -4 23 0 32 7 15 12 16 12 10 -5 -6 -14 -4 -17 5 -9 7 5
34 9 61 8 26 0 47 4 47 9 0 4 6 4 13 -2 8 -7 18 -7 27 -2 8 5 21 5 31 0 9 -5
19 -7 21 -4 12 11 48 12 48 1 0 -8 3 -9 8 -1 4 6 18 11 32 12 14 0 39 2 57 4
27 4 30 2 23 -13 -5 -9 -6 -20 -2 -25 4 -5 3 -6 -1 -2 -5 4 -22 -7 -38 -23
-16 -16 -29 -27 -29 -24 0 3 -6 0 -14 -7 -8 -7 -12 -16 -9 -20 2 -5 0 -8 -6
-8 -5 0 -30 -20 -55 -44 -24 -24 -47 -42 -50 -38 -6 5 -10 -14 -7 -31 1 -5 -3
-6 -8 -3 -5 4 -26 -11 -47 -31 -20 -21 -41 -37 -48 -35 -6 2 -8 0 -4 -4 11
-10 -12 -35 -25 -27 -5 3 -8 2 -5 -3 7 -11 -17 -35 -26 -27 -3 4 -6 -1 -6 -10
0 -9 -7 -17 -15 -17 -8 0 -21 -12 -29 -27 -8 -16 -15 -24 -16 -20 0 4 -19 -11
-42 -35 -23 -24 -47 -43 -53 -43 -5 -1 -9 -6 -8 -12 2 -7 -6 -15 -17 -18 -11
-4 -18 -11 -15 -16 4 -5 2 -9 -3 -9 -5 0 -37 -27 -71 -60 -34 -33 -67 -60 -72
-60 -6 0 -8 -3 -6 -7 4 -10 -40 -53 -47 -45 -3 3 -6 -2 -6 -11 0 -9 -6 -16
-12 -14 -7 1 -12 -4 -10 -12 2 -8 -3 -11 -13 -8 -8 4 -15 2 -15 -3 0 -15 -33
-50 -48 -50 -7 0 -10 -4 -7 -10 3 -5 3 -10 -2 -10 -13 0 -92 -77 -86 -84 4 -3
-1 -6 -10 -6 -9 0 -21 -9 -27 -20 -6 -11 -18 -20 -28 -20 -15 0 -15 -2 -2 -10
12 -8 11 -10 -7 -10 -13 0 -23 -4 -23 -8 0 -11 -36 -54 -44 -53 -3 1 -6 -1 -6
-4 1 -13 -26 -32 -39 -27 -8 3 -12 1 -9 -4 3 -5 -8 -21 -23 -36 -16 -15 -29
-24 -30 -20 0 4 -4 -1 -8 -11 -4 -10 -11 -19 -15 -20 -5 -1 -39 -32 -77 -68
-37 -37 -70 -64 -73 -61 -3 3 -6 -1 -6 -10 0 -8 -11 -21 -25 -28 -13 -7 -22
-17 -19 -22 3 -4 -2 -8 -10 -8 -8 0 -18 -5 -22 -12 -5 -7 -3 -8 6 -3 9 5 11 4
6 -3 -4 -7 -13 -12 -21 -12 -7 0 -16 -7 -19 -16 -3 -8 -10 -12 -16 -9 -5 3
-10 -3 -10 -14 0 -15 -4 -19 -17 -14 -9 4 -14 2 -11 -3 3 -5 -3 -17 -14 -26
-10 -10 -18 -16 -18 -13 0 2 -10 -6 -23 -18 -13 -12 -22 -25 -20 -29 2 -5 0
-8 -6 -8 -14 0 -77 -62 -73 -72 1 -4 -1 -7 -5 -7 -18 3 -34 -2 -31 -8 2 -5 -9
-20 -24 -35 -15 -15 -28 -25 -28 -22 0 2 -10 -6 -22 -18 -13 -13 -22 -26 -20
-30 1 -5 -3 -8 -8 -8 -6 0 -24 -14 -40 -30 -17 -17 -30 -28 -30 -25 0 3 -8 -3
-18 -12 -11 -10 -17 -21 -15 -25 2 -5 0 -8 -5 -8 -4 0 -41 -31 -80 -70 -40
-38 -72 -67 -72 -65 0 2 -10 -6 -23 -18 -13 -12 -22 -25 -20 -29 2 -5 -3 -8
-11 -8 -9 0 -16 -7 -16 -16 0 -8 -4 -12 -10 -9 -5 3 -10 1 -10 -4 0 -6 -7 -11
-16 -11 -8 0 -12 -4 -9 -10 3 -5 1 -10 -5 -10 -6 0 -8 -5 -5 -10 4 -6 3 -10
-2 -9 -15 4 -43 -13 -37 -22 3 -5 1 -9 -3 -9 -13 0 -83 -68 -83 -80 0 -5 -4
-9 -9 -8 -5 2 -35 -24 -67 -57 -32 -33 -55 -54 -50 -47 4 6 5 12 1 12 -3 0
-14 -15 -25 -32 -11 -18 -20 -29 -20 -24 0 5 -12 -4 -27 -20 -15 -16 -26 -33
-25 -37 1 -5 -2 -6 -7 -3 -5 3 -21 -8 -35 -25 -14 -17 -26 -28 -26 -25 0 4
-24 -17 -52 -46 -29 -29 -52 -57 -50 -61 1 -5 -1 -6 -6 -3 -4 2 -25 -13 -46
-35 -21 -21 -43 -39 -47 -39 -5 0 -9 -7 -9 -16 0 -8 -4 -13 -8 -10 -5 3 -15
-4 -22 -15 -8 -10 -20 -19 -27 -19 -7 0 -13 -7 -13 -16 0 -9 -9 -18 -20 -21
-11 -3 -20 -12 -20 -19 0 -8 -4 -14 -9 -14 -5 0 -43 -34 -86 -75 -42 -41 -82
-75 -88 -75 -6 0 -7 -3 -4 -7 9 -8 -34 -39 -48 -35 -5 2 -7 1 -3 -3 7 -7 -91
-108 -130 -135 -12 -8 -25 -23 -28 -33 -3 -10 -8 -16 -11 -13 -3 2 -29 -20
-59 -50 -30 -30 -58 -54 -63 -54 -5 0 -18 -15 -30 -32 -11 -18 -21 -29 -21
-24 0 5 -15 -8 -34 -28 -19 -20 -40 -36 -46 -36 -6 0 -8 -5 -5 -10 3 -6 -1
-13 -9 -16 -9 -4 -36 -26 -59 -50 -24 -24 -47 -41 -51 -36 -4 4 -6 2 -4 -3 3
-11 -68 -85 -83 -85 -5 0 -9 -6 -9 -14 0 -8 -5 -18 -12 -22 -7 -5 -8 -3 -3 6
5 9 4 11 -3 6 -7 -4 -12 -14 -12 -22 0 -8 -4 -12 -10 -9 -5 3 -10 -1 -10 -9 0
-9 -3 -15 -7 -14 -5 2 -25 -14 -46 -35 -21 -20 -43 -37 -48 -37 -6 0 -8 -3 -6
-7 3 -5 -1 -14 -9 -21 -8 -7 -14 -11 -14 -8 0 2 -19 -14 -42 -37 -24 -23 -42
-46 -40 -50 1 -5 -1 -6 -6 -3 -4 2 -25 -13 -46 -35 -21 -21 -46 -39 -55 -40
-10 0 -11 -2 -4 -6 17 -6 -9 -33 -32 -33 -11 0 -15 -5 -11 -15 3 -8 0 -15 -5
-15 -6 0 -28 -17 -48 -37 -20 -21 -51 -49 -69 -63 -17 -14 -32 -31 -32 -38 0
-6 -4 -11 -8 -10 -5 2 -37 -25 -71 -59 -34 -35 -66 -63 -72 -63 -5 0 -9 -7 -9
-15 0 -8 -4 -14 -8 -13 -4 2 -28 -17 -52 -42 -24 -25 -47 -45 -50 -46 -13 -1
-118 -113 -112 -120 4 -4 2 -4 -4 -1 -7 4 -22 -7 -35 -23 -13 -16 -30 -30 -37
-30 -8 0 -10 -5 -6 -12 5 -8 2 -9 -10 -5 -9 4 -15 3 -12 -2 8 -12 -29 -43 -39
-34 -4 5 -6 3 -2 -3 3 -5 -5 -18 -18 -28 -14 -10 -22 -23 -18 -29 3 -6 1 -7
-6 -3 -6 4 -14 0 -17 -8 -3 -9 -12 -16 -20 -16 -8 0 -13 -4 -12 -9 2 -5 1 -9
-2 -8 -3 0 -33 -27 -67 -61 -35 -34 -68 -62 -75 -62 -6 0 -8 -3 -5 -7 4 -3 -8
-17 -25 -30 -18 -12 -28 -23 -23 -23 5 0 -2 -8 -15 -17 -14 -10 -36 -30 -49
-46 -13 -15 -26 -25 -29 -23 -3 3 -16 -9 -29 -26 -12 -18 -23 -28 -23 -22 -1
5 -7 -2 -15 -16 -8 -14 -14 -22 -15 -17 0 4 -27 -20 -60 -53 -33 -33 -64 -60
-70 -60 -5 0 -10 -4 -10 -10 0 -5 -11 -20 -25 -34 -14 -14 -25 -23 -25 -21 0
3 -10 -5 -22 -17 -13 -13 -22 -26 -20 -30 1 -5 -2 -8 -8 -8 -17 0 -60 -43 -53
-53 3 -6 2 -7 -4 -4 -11 7 -90 -63 -85 -75 1 -5 -3 -8 -9 -8 -6 0 -37 -27 -70
-60 -35 -36 -64 -58 -71 -54 -8 5 -9 2 -5 -9 3 -10 2 -17 -3 -17 -5 0 -15 -6
-22 -13 -7 -6 -27 -24 -45 -39 -24 -19 -29 -28 -18 -32 8 -3 14 0 12 6 -1 7 4
13 11 14 6 1 17 2 22 3 6 0 9 7 8 14 -2 6 2 11 9 10 6 -1 26 11 43 27 17 16
33 29 35 29 3 1 10 1 16 1 5 0 8 4 5 8 -3 5 10 15 29 22 24 9 31 16 23 22 -10
6 -9 8 2 8 17 0 47 20 86 56 12 12 25 20 27 17 3 -2 19 10 38 26 18 17 37 27
42 24 6 -4 8 0 4 10 -4 11 -2 14 9 10 7 -3 14 0 14 6 0 6 5 11 11 11 6 0 17 7
26 15 8 8 19 12 25 9 6 -4 8 -3 5 2 -3 6 17 25 44 43 27 19 49 38 49 43 0 5 5
6 10 3 6 -3 24 9 41 27 18 18 28 26 24 18 -4 -8 2 -5 14 8 12 12 28 19 34 16
7 -4 9 -4 5 1 -7 7 43 55 57 55 4 0 14 8 22 18 10 11 12 12 8 2 -6 -13 -5 -13
7 0 17 19 85 70 93 70 4 0 14 9 23 21 10 11 26 21 37 23 11 2 19 6 17 11 -2 4
15 18 37 32 23 13 41 29 41 34 0 6 5 7 10 4 6 -3 13 1 16 9 3 9 10 13 15 10 5
-3 12 2 15 10 3 9 10 13 15 10 5 -3 9 -1 9 4 0 5 9 12 21 15 12 3 19 10 16 14
-3 5 7 14 22 21 15 7 37 21 49 32 12 12 22 17 22 13 0 -4 5 0 11 10 5 9 17 17
25 17 8 0 12 5 9 10 -3 6 0 10 8 10 7 0 23 9 34 19 12 11 24 17 27 14 3 -4 6
1 6 10 0 10 3 16 8 16 21 -4 32 2 26 13 -5 8 -2 9 9 5 12 -4 17 -1 17 9 0 11
6 14 16 10 8 -3 13 -2 10 2 -2 4 15 20 40 36 24 15 44 32 44 38 0 5 5 6 10 3
6 -3 13 1 16 9 3 9 10 13 15 10 5 -3 9 0 9 5 0 6 7 11 16 11 8 0 13 3 11 8 -3
4 7 16 21 26 14 11 22 14 18 8 -5 -8 -2 -10 8 -6 9 3 14 10 11 14 -3 5 3 11
14 15 11 3 22 12 25 20 3 8 12 15 21 15 8 0 15 5 15 10 0 6 6 10 14 10 7 0 19
7 26 15 7 8 17 12 23 8 5 -3 7 -2 4 3 -3 5 11 21 31 34 20 14 46 33 56 42 10
10 23 15 28 12 4 -3 8 0 8 6 0 6 5 8 12 4 8 -5 9 -2 5 10 -5 13 -3 17 6 13 7
-3 19 4 26 15 7 11 15 18 18 15 2 -3 13 2 22 11 10 10 28 24 41 32 12 8 31 23
41 34 10 10 25 16 33 13 10 -4 13 -1 9 9 -3 8 1 14 11 14 9 0 16 5 16 12 0 6
3 9 6 5 3 -3 14 2 25 11 10 10 28 25 39 35 11 9 20 14 20 10 1 -5 9 2 19 14
10 12 21 19 25 16 3 -4 6 1 6 10 0 10 6 14 14 11 7 -3 16 2 20 11 4 10 12 15
22 11 8 -3 13 -2 11 2 -3 4 1 13 9 20 8 7 14 10 14 7 0 -4 6 0 14 7 27 25 79
63 80 58 1 -3 9 2 18 10 9 8 13 19 10 24 -3 5 1 7 10 4 9 -4 22 4 33 18 9 13
21 21 26 18 5 -3 12 2 15 10 3 9 10 13 15 10 5 -3 12 2 15 10 3 9 12 16 19 16
7 0 16 7 19 16 3 8 10 12 16 9 5 -3 10 -1 10 4 0 6 7 11 16 11 8 0 12 5 9 10
-3 6 1 10 9 10 8 0 20 8 25 18 6 9 11 13 11 9 0 -5 7 -2 15 5 32 29 45 39 45
33 0 -3 9 4 20 15 11 11 27 20 35 20 9 0 12 6 8 17 -5 12 -2 15 10 10 9 -3 17
-2 17 4 0 6 5 7 10 4 6 -4 9 -1 8 7 -2 7 3 12 10 10 7 -1 15 5 18 13 3 8 10
12 15 9 5 -3 12 2 15 10 3 9 12 16 20 16 8 0 14 5 14 10 0 6 7 10 16 10 8 0
12 5 9 10 -3 6 1 10 10 10 10 0 13 5 9 12 -4 6 -3 8 4 4 6 -3 13 -2 17 4 4 6
11 8 16 5 5 -4 9 1 9 10 0 9 4 13 10 10 5 -3 15 3 21 14 8 11 19 17 28 13 9
-3 13 -1 9 3 -7 8 52 55 69 55 4 0 20 15 36 33 16 17 26 25 22 17 -5 -8 3 -5
17 8 13 12 28 22 33 22 4 0 14 8 21 18 7 9 16 17 21 17 5 0 19 10 33 22 13 13
27 23 32 23 4 0 20 12 35 28 16 15 35 28 43 30 8 2 20 10 26 18 6 7 16 14 23
14 6 0 11 5 11 10 0 6 6 10 14 10 8 0 17 7 20 16 4 9 9 14 12 11 3 -3 16 5 28
17 11 13 31 26 44 30 12 4 20 12 17 17 -4 5 1 9 9 9 8 0 28 11 43 25 47 42 51
44 57 38 3 -4 6 -2 6 4 0 6 20 23 45 37 25 15 45 31 45 37 0 6 5 7 10 4 6 -3
10 -1 10 4 0 6 4 11 9 11 6 0 22 11 37 25 15 14 29 23 32 21 2 -3 16 8 30 22
15 15 30 27 34 27 5 0 22 14 40 30 18 17 28 23 24 15 -4 -9 -1 -8 7 3 8 9 18
17 23 17 5 0 17 8 26 18 23 24 48 44 48 37 0 -2 8 2 18 10 65 54 96 74 105 68
5 -3 7 -1 3 5 -3 6 3 13 14 17 11 3 20 14 20 23 0 15 2 15 10 2 6 -9 10 -10
10 -3 0 15 85 75 94 66 3 -4 6 0 6 9 0 8 18 23 39 34 22 10 38 21 36 25 -2 3
10 14 28 24 28 16 62 40 105 76 6 5 12 7 12 4 0 -3 13 7 28 22 16 15 33 29 39
30 20 4 82 50 76 57 -6 6 12 10 30 7 4 0 7 6 7 14 0 8 7 15 15 15 8 0 15 5 15
12 0 6 3 8 7 5 3 -4 16 4 27 16 12 13 28 21 35 19 8 -3 11 0 7 6 -3 6 7 16 24
24 16 7 30 19 30 26 0 7 5 10 10 7 6 -3 10 -1 10 5 0 6 4 9 8 6 5 -3 16 4 25
15 10 11 22 17 27 14 6 -3 10 0 10 8 0 14 47 42 63 38 5 -1 6 2 3 7 -3 5 6 15
19 22 14 7 25 17 25 22 0 4 7 8 15 8 9 0 18 7 21 15 4 8 10 12 15 9 5 -3 12 2
15 10 3 9 10 14 14 11 4 -3 11 2 14 11 3 8 10 12 16 9 5 -3 10 -2 10 3 0 6 23
24 50 42 28 18 50 36 50 41 0 5 6 9 13 9 7 0 23 9 35 20 12 11 25 20 31 20 5
0 12 7 15 16 4 9 9 14 13 11 3 -4 14 3 24 15 11 11 19 18 19 14 0 -4 6 -1 14
6 8 7 11 17 8 22 -3 5 -1 6 5 3 11 -7 66 27 58 35 -3 3 1 8 10 12 11 4 14 2 9
-7 -4 -6 3 -2 14 10 12 12 35 30 52 39 16 10 30 22 30 26 0 4 7 8 15 8 8 0 15
4 15 8 0 5 15 17 34 27 19 11 32 23 29 28 -3 5 0 8 7 5 7 -2 26 9 42 24 17 15
34 28 39 28 4 0 19 10 33 23 41 38 54 46 60 40 3 -4 6 -2 6 4 0 6 9 13 21 16
12 3 18 10 14 16 -3 6 0 11 8 11 7 0 23 9 35 20 12 12 22 18 22 14 0 -4 9 1
20 12 27 27 48 44 55 44 6 0 130 89 158 114 9 9 20 17 25 18 8 2 24 14 53 41
10 9 21 17 24 17 7 -1 78 52 87 65 5 6 8 6 8 0 0 -5 7 1 16 13 9 14 22 21 31
18 8 -3 11 -1 8 4 -3 6 -2 10 4 10 5 0 17 8 27 18 10 9 20 17 24 17 4 0 14 7
22 16 9 9 39 30 67 48 28 18 51 37 51 42 0 5 6 9 14 9 8 0 16 4 18 9 2 5 10
11 17 13 8 2 25 13 37 26 12 12 24 22 28 22 4 0 16 9 28 20 12 10 26 17 31 13
6 -3 7 -1 3 5 -7 11 6 17 27 13 5 -1 6 3 3 8 -3 5 2 15 11 22 14 12 16 12 9
-1 -4 -8 2 -4 14 10 12 14 19 19 15 12 -6 -11 -3 -12 14 -3 11 7 21 14 21 17
0 3 -4 2 -10 -1 -6 -3 -7 1 -4 9 3 9 10 13 15 10 5 -3 16 1 24 8 33 30 45 38
55 38 6 0 13 7 16 15 4 8 15 15 25 15 12 0 16 5 12 15 -3 9 -2 15 3 13 12 -4
74 34 74 45 0 4 4 6 9 2 5 -3 16 3 23 14 8 11 20 21 28 23 8 2 21 11 28 21 7
9 17 15 22 12 4 -3 11 2 14 11 3 8 10 12 16 9 5 -3 10 1 10 10 0 9 5 13 10 10
6 -3 10 -2 10 2 0 5 15 17 33 28 17 10 36 25 40 32 5 7 12 11 18 8 5 -4 9 1 9
10 0 9 5 13 11 10 5 -4 18 3 28 14 10 12 22 21 27 21 5 0 17 9 27 20 10 12 23
18 29 14 7 -4 8 -3 4 4 -4 7 -1 12 7 12 8 0 17 7 21 15 3 8 12 15 21 15 8 0
15 4 15 8 0 11 63 47 75 43 6 -1 7 1 3 5 -7 7 18 31 35 33 4 0 18 12 31 26 13
13 26 22 29 18 4 -3 7 0 7 7 0 7 3 11 6 7 3 -3 16 5 29 19 12 13 30 24 39 24
10 0 15 4 12 9 -6 8 16 23 39 26 6 0 9 6 8 13 -3 11 9 16 22 10 2 -2 12 7 20
20 9 12 21 22 27 22 6 0 17 8 25 18 10 11 12 12 8 2 -4 -8 2 -6 12 5 10 11 35
31 56 44 20 12 37 28 37 33 0 6 3 8 6 5 4 -4 15 3 25 15 11 11 19 17 19 13 0
-5 9 1 21 13 11 12 24 20 30 17 5 -4 9 1 9 10 0 9 5 13 10 10 6 -3 10 -1 10 5
0 7 7 10 15 6 9 -3 15 0 15 8 0 8 11 21 25 30 14 9 25 14 25 11 0 -3 8 3 18
13 11 9 17 21 14 26 -3 5 0 6 6 2 10 -6 31 7 67 42 8 6 18 12 24 12 6 0 11 5
11 11 0 5 5 7 10 4 6 -3 10 1 10 10 0 9 5 13 10 10 6 -3 10 -1 10 6 0 7 3 10
6 6 3 -3 18 5 32 19 15 13 30 24 35 24 4 0 5 5 1 12 -4 6 -3 8 3 5 9 -6 47 19
101 63 6 6 12 8 12 4 0 -4 11 5 25 20 14 15 25 23 25 19 0 -4 5 0 11 10 5 9
15 17 22 17 7 0 24 11 39 24 14 14 29 22 32 19 3 -4 6 -1 6 5 0 7 7 12 16 12
9 0 12 5 8 12 -5 8 -2 9 10 5 11 -4 15 -3 11 4 -4 6 2 13 14 16 12 3 21 8 21
12 0 4 16 15 35 24 20 9 38 24 41 32 4 8 10 12 15 9 5 -3 9 -1 9 5 0 5 9 13
20 16 11 4 18 11 15 16 -4 5 0 9 8 9 8 0 24 9 37 20 13 11 29 20 37 20 8 0 12
4 9 8 -4 8 46 44 59 42 3 0 20 14 37 32 17 18 27 26 23 18 -4 -8 1 -6 12 5 37
36 61 53 67 48 3 -4 6 0 6 7 0 7 2 11 5 8 5 -5 29 12 74 52 9 8 29 21 44 27
15 7 27 17 27 23 0 5 6 10 14 10 8 0 17 7 20 16 4 9 9 14 12 11 6 -6 17 2 55
36 10 9 24 17 29 17 6 0 10 4 10 10 0 11 60 45 73 42 5 -1 6 2 3 7 -4 5 2 12
13 16 11 3 22 12 25 20 3 8 11 15 17 15 7 0 18 8 26 18 9 11 12 11 8 2 -4 -8
4 -3 17 12 14 15 28 25 32 21 3 -3 6 0 6 7 0 7 3 11 6 7 3 -3 16 5 29 18 12
14 25 22 28 18 4 -3 7 0 7 7 0 7 3 11 6 8 3 -3 16 4 29 16 40 36 55 47 55 39
0 -4 5 0 11 10 6 9 14 15 20 12 5 -4 9 1 9 9 0 9 3 15 8 14 15 -3 42 15 35 25
-3 5 -1 7 4 4 6 -4 23 5 37 18 15 14 32 22 38 19 7 -4 8 -2 4 4 -4 7 -2 12 5
12 6 0 19 8 28 19 9 10 31 26 49 35 17 9 32 19 32 22 0 3 -5 2 -12 -2 -7 -4
-8 -3 -4 4 4 6 13 9 21 6 8 -4 18 1 21 10 3 9 12 16 19 16 7 0 16 7 19 16 4 9
9 14 13 10 3 -3 13 3 20 14 8 11 19 18 24 15 5 -4 12 1 15 9 3 9 10 16 15 16
5 0 18 9 29 20 12 12 25 18 30 15 6 -4 10 1 10 9 0 9 7 16 15 16 8 0 15 4 15
10 0 5 7 6 17 3 9 -4 14 -2 11 3 -3 5 11 23 30 39 20 17 32 23 27 15 -5 -10
-2 -9 11 3 32 30 67 57 73 57 3 0 21 14 40 30 18 16 37 27 42 24 5 -3 9 2 9
10 0 9 5 16 11 16 10 0 29 13 86 60 7 6 15 10 18 10 4 0 13 7 22 15 8 8 19 12
25 9 6 -4 8 -3 5 3 -3 5 11 20 32 34 22 13 37 27 35 31 -2 3 10 11 26 17 18 6
30 17 30 28 0 14 2 15 9 4 7 -11 11 -10 20 5 6 11 11 15 11 9 0 -5 11 3 25 19
14 16 25 26 25 22 0 -4 13 2 28 13 33 23 38 47 10 47 -10 0 -18 -3 -18 -6 0
-7 -65 -4 -78 4 -6 3 -14 2 -17 -4 -5 -8 -12 -7 -23 2 -12 10 -14 10 -8 1 4
-8 1 -13 -9 -13 -9 0 -13 4 -10 10 4 7 -3 7 -20 0 -15 -6 -31 -7 -36 -4 -6 3
-15 1 -22 -4 -7 -5 -21 -8 -32 -5 -40 8 -105 8 -105 -1 0 -4 -6 -4 -13 3 -10
7 -17 7 -24 0 -7 -7 -13 -7 -17 -1 -4 7 -18 7 -39 1 -20 -6 -33 -5 -35 0 -2 6
-12 7 -27 1 -12 -5 -26 -6 -29 -3 -3 3 -12 0 -20 -6 -11 -9 -16 -9 -22 0 -5 8
-3 9 6 4 9 -5 11 -4 6 3 -5 8 -14 9 -24 4 -9 -5 -38 -8 -65 -6 -26 1 -45 -1
-42 -5 2 -4 -2 -8 -10 -8 -8 0 -15 4 -15 9 0 4 -5 8 -11 8 -5 0 -7 -5 -3 -11
5 -8 1 -8 -14 0 -11 6 -23 11 -27 11 -3 0 -3 -5 1 -11 4 -7 -1 -7 -16 1 -15 8
-20 8 -16 1 4 -6 3 -11 -3 -11 -5 0 -12 6 -14 13 -4 9 -6 8 -6 -2 -1 -11 -4
-11 -16 -1 -8 7 -15 9 -15 4 0 -13 -51 -14 -74 -2 -12 6 -16 7 -12 0 3 -5 -1
-13 -10 -16 -8 -3 -13 -2 -10 3 3 5 -1 12 -10 15 -8 3 -13 2 -9 -3 3 -6 -19
-8 -50 -7 -34 2 -55 -1 -55 -8 0 -7 -3 -7 -8 -1 -8 11 -47 13 -58 2 -4 -4 -13
-2 -20 4 -9 7 -19 7 -34 -1 -15 -8 -25 -9 -32 -2 -7 7 -19 7 -34 2 -15 -6 -24
-5 -28 3 -3 8 -7 9 -13 2 -9 -11 -78 -14 -88 -3 -4 4 -15 4 -24 -1 -9 -5 -26
-7 -39 -5 -14 3 -21 0 -17 -6 7 -12 -23 -2 -44 14 -12 9 -13 8 -9 -4 4 -11 -1
-15 -16 -15 -12 1 -27 5 -34 9 -7 4 -12 2 -12 -5 0 -9 -3 -10 -11 -2 -6 6 -25
7 -50 3 -23 -4 -42 -3 -45 2 -4 6 -10 5 -15 -3 -8 -12 -11 -11 -19 1 -6 10
-10 11 -10 3 0 -7 -5 -13 -11 -13 -5 0 -8 4 -4 9 3 6 -6 6 -24 1 -17 -5 -44
-6 -62 -3 -23 3 -29 1 -24 -8 6 -8 4 -10 -6 -3 -17 10 -106 12 -136 2 -12 -4
-25 -4 -27 1 -3 4 -26 5 -51 1 -30 -5 -45 -3 -45 4 0 7 -3 7 -8 1 -4 -5 -20
-10 -37 -10 -16 0 -33 5 -37 10 -5 7 -8 7 -8 0 0 -5 -11 -11 -25 -11 -15 -1
-22 2 -18 9 4 6 1 7 -8 1 -8 -5 -30 -9 -49 -9 -19 0 -40 -4 -46 -7 -6 -4 -14
-4 -18 -1 -12 12 -48 14 -40 2 5 -8 1 -8 -14 0 -25 14 -35 14 -27 2 6 -10 -27
-7 -45 4 -6 3 -10 1 -10 -4 0 -6 -5 -11 -11 -11 -5 0 -8 4 -5 8 7 11 -56 2
-71 -10 -7 -6 -14 -5 -18 2 -3 6 -11 8 -16 5 -5 -4 -9 0 -9 7 0 9 -3 9 -10 -2
-5 -8 -10 -10 -10 -5 0 6 -5 3 -10 -5 -5 -8 -10 -10 -10 -3 0 6 -9 9 -22 5
-16 -4 -19 -2 -13 9 5 8 0 7 -12 -4 -11 -9 -22 -15 -25 -12 -11 11 -48 14 -48
4 0 -6 -6 -7 -12 -2 -17 10 -38 10 -66 1 -13 -4 -21 -4 -18 0 5 9 -69 6 -84
-3 -6 -3 -10 -1 -10 5 0 6 -5 8 -11 5 -17 -11 -59 -13 -59 -2 0 5 -6 5 -14 -2
-16 -13 -37 -11 -48 4 -4 6 -8 1 -8 -10 0 -12 -3 -16 -8 -9 -8 12 -62 14 -62
2 0 -4 -5 -8 -11 -8 -5 0 -8 4 -5 9 9 14 -16 20 -37 9 -10 -5 -25 -7 -33 -4
-8 3 -14 0 -14 -6 0 -7 -6 -3 -14 8 -14 18 -15 18 -22 1 -5 -15 -9 -16 -15 -5
-7 11 -9 11 -9 -1 0 -11 -3 -11 -17 0 -10 8 -14 9 -10 2 6 -9 -2 -10 -29 -6
-30 5 -36 3 -29 -8 7 -12 6 -12 -7 -1 -8 7 -23 10 -32 6 -9 -3 -24 0 -33 7 -9
8 -14 9 -10 3 4 -7 -31 -11 -111 -11 -64 -1 -118 -2 -119 -3 -4 -2 -72 -2 -80
0 -5 1 -12 2 -16 1 -43 -8 -67 -7 -67 3 0 7 -3 7 -8 1 -10 -14 -72 -15 -72 -1
0 6 -5 4 -10 -4 -5 -8 -10 -11 -10 -6 0 5 -8 2 -17 -5 -11 -10 -14 -10 -9 -1
5 8 0 12 -14 12 -12 0 -19 -3 -17 -7 3 -5 -5 -8 -18 -8 -13 0 -21 3 -18 8 7
11 -26 8 -49 -4 -18 -10 -20 -9 -14 7 5 16 4 17 -6 4 -7 -8 -23 -14 -36 -12
-13 2 -30 -2 -39 -10 -12 -9 -15 -9 -9 -1 8 15 -41 15 -61 1 -7 -6 -14 -4 -19
3 -5 8 -3 9 6 4 9 -5 11 -4 6 3 -5 8 -14 9 -24 4 -9 -5 -29 -8 -44 -7 -16 1
-28 -3 -28 -9 0 -6 -5 -3 -11 7 -7 13 -14 15 -23 8 -6 -5 -25 -9 -42 -9 -17 1
-36 -2 -42 -6 -6 -3 -12 -1 -14 5 -2 7 -12 7 -30 0 -17 -6 -30 -7 -33 -1 -3 6
-15 6 -30 0 -16 -6 -25 -6 -25 1 0 6 -6 6 -17 1 -10 -5 -27 -6 -38 -2 -11 4
-28 3 -37 -2 -12 -5 -26 -5 -39 3 -12 6 -19 7 -16 2 4 -6 -10 -10 -31 -11 -20
-1 -44 -2 -52 -2 -8 -1 -25 1 -37 4 -14 3 -23 0 -23 -7 0 -7 -4 -6 -10 3 -9
13 -10 13 -11 0 0 -10 -3 -8 -9 5 -8 18 -9 18 -9 2 -1 -15 -5 -16 -21 -7 -14
8 -20 8 -20 0 0 -7 -6 -8 -18 -1 -10 5 -24 6 -31 1 -8 -4 -27 -4 -43 0 -15 5
-26 5 -23 0 8 -13 -18 -18 -38 -6 -13 8 -20 8 -27 -4 -8 -12 -10 -12 -10 -1 0
11 -3 11 -17 0 -9 -8 -14 -9 -10 -2 5 8 -9 10 -53 8 -34 -3 -65 -7 -69 -10 -5
-3 -11 0 -13 6 -2 7 -12 7 -29 1 -15 -6 -32 -7 -39 -2 -9 5 -20 4 -27 -2 -9
-7 -13 -7 -13 1 0 7 -5 9 -12 5 -15 -9 -58 -10 -81 -1 -9 3 -17 3 -17 -2 0 -5
-15 -7 -32 -6 -18 2 -39 -2 -47 -9 -12 -9 -13 -8 -6 3 6 11 3 13 -18 7 -14 -3
-29 -2 -32 4 -3 5 -12 10 -18 10 -7 0 -6 -4 3 -10 11 -7 -6 -9 -57 -7 -49 2
-70 0 -66 -7 3 -6 0 -6 -7 1 -11 10 -16 9 -27 -5 -8 -9 -12 -12 -9 -6 3 7 -1
14 -9 18 -8 3 -15 0 -15 -6 0 -7 -5 -6 -15 2 -8 7 -15 8 -15 3 0 -5 -25 -9
-56 -8 -30 0 -58 -3 -60 -7 -3 -5 -11 -5 -17 -1 -17 11 -41 10 -49 -2 -5 -6
-8 -6 -8 2 0 7 -10 10 -27 6 -30 -6 -31 -6 -81 0 -18 2 -35 0 -38 -5 -3 -4
-15 -3 -26 3 -11 6 -23 7 -27 3 -9 -13 -41 -14 -41 -2 0 7 -5 7 -13 0 -11 -9
-36 -10 -57 -2 -3 1 -9 1 -15 0 -32 -9 -115 -6 -115 4 0 6 -4 5 -9 -2 -4 -8
-19 -12 -32 -11 -13 2 -30 -1 -38 -5 -10 -6 -12 -5 -7 2 4 7 2 12 -3 12 -6 0
-11 -4 -11 -8 0 -14 -41 -7 -52 9 -8 12 -9 12 -5 -1 4 -12 -2 -16 -23 -14 -16
1 -34 5 -41 9 -7 5 -10 4 -6 -2 4 -6 0 -14 -9 -17 -8 -3 -13 -2 -10 3 3 5 -5
11 -19 13 -13 3 -23 2 -20 -2 2 -3 -50 -6 -116 -6 -67 1 -126 -2 -132 -6 -6
-4 -17 -2 -24 4 -7 6 -13 7 -13 2 0 -7 -101 -10 -120 -3 -3 1 -9 0 -15 -1 -27
-6 -51 -5 -57 5 -5 6 -8 6 -8 -2 0 -7 -7 -13 -15 -13 -8 0 -15 6 -15 13 0 8
-3 8 -8 2 -9 -13 -42 -13 -61 -1 -9 6 -12 5 -7 -2 4 -6 -1 -10 -13 -9 -21 1
-22 24 0 41 8 6 15 17 17 25 1 7 9 20 17 28 9 8 13 19 10 24 -4 5 -1 9 4 9 6
0 11 7 11 16 0 8 5 12 11 9 6 -4 9 0 7 11 -2 12 2 18 10 16 8 -1 11 2 7 8 -4
6 0 17 9 23 9 7 18 22 19 35 0 12 5 22 9 22 5 0 18 20 30 45 12 24 25 42 30
39 5 -3 8 -2 7 3 -4 23 2 43 14 41 6 -2 11 5 9 15 -2 9 1 17 6 17 6 0 13 11
16 25 4 14 11 25 16 25 6 0 10 7 10 15 0 8 5 15 11 15 5 0 8 4 4 9 -3 6 3 14
12 20 10 5 17 12 16 15 -3 12 10 46 18 46 5 0 9 7 9 15 0 9 6 18 14 21 9 3 12
12 9 22 -5 11 -2 14 9 9 12 -4 14 -1 11 14 -3 10 0 19 6 19 6 0 11 7 11 15 0
8 5 15 11 15 5 0 8 4 4 9 -3 5 3 17 12 27 10 10 19 20 19 23 8 31 18 50 25 45
5 -3 9 2 9 11 0 9 11 31 25 49 14 18 22 36 18 39 -3 4 -2 7 4 7 6 0 16 14 23
30 7 17 16 30 21 30 5 0 8 3 7 8 -3 10 34 72 44 72 4 0 5 7 2 15 -4 8 -1 15 5
15 6 0 11 7 11 15 0 9 6 18 14 21 9 3 12 12 9 21 -4 11 -2 14 5 9 8 -5 12 0
12 14 0 13 4 19 12 14 6 -4 8 -3 5 3 -4 6 2 22 13 35 11 14 16 28 13 32 -3 3
-2 6 4 6 5 0 20 20 32 45 12 25 27 45 33 45 6 0 8 3 5 7 -4 3 1 15 10 26 13
15 14 18 3 13 -8 -4 -4 2 10 14 14 12 19 18 11 14 -9 -5 -7 2 5 18 10 14 22
24 26 21 4 -2 5 3 2 11 -3 9 -1 16 6 16 6 0 8 5 5 10 -3 6 -1 10 4 10 6 0 10
3 9 8 -3 16 15 41 26 35 6 -3 8 -3 4 2 -4 4 -3 14 3 22 6 7 8 13 3 13 -4 0 0
6 10 13 9 7 18 22 19 34 0 12 4 20 8 17 4 -2 10 5 14 16 3 11 11 20 16 20 6 0
7 5 4 11 -4 5 1 18 12 27 10 9 19 24 21 32 2 8 10 20 18 27 9 6 15 14 15 17
-2 13 28 76 36 76 5 0 17 20 28 44 11 24 24 42 29 38 5 -3 7 2 3 11 -4 11 -1
17 8 17 8 0 14 3 13 8 -4 13 13 52 21 48 4 -3 8 0 8 7 0 7 12 31 26 55 15 23
24 42 21 42 -4 0 3 9 15 19 13 11 20 25 16 30 -3 6 -2 11 3 11 5 0 17 18 28
40 10 22 23 40 27 40 5 0 6 4 3 9 -3 5 1 12 10 15 9 4 14 9 11 12 -3 4 3 16
14 27 11 12 18 26 16 31 -2 6 7 19 20 29 13 10 21 22 19 26 -3 4 6 24 19 43
13 20 21 38 18 42 -3 3 2 8 11 12 9 3 16 14 16 23 1 22 25 52 35 43 5 -4 5 -2
1 5 -3 6 -2 14 4 18 6 4 8 11 5 16 -4 5 -1 9 4 9 6 0 11 7 11 15 0 8 6 15 13
15 7 0 14 10 14 22 1 13 9 28 17 34 9 6 13 14 9 17 -3 4 -1 7 6 7 7 0 9 5 6
10 -3 6 1 13 10 16 12 5 13 9 4 21 -7 8 -8 13 -3 12 22 -4 33 2 28 16 -4 8 -2
15 3 15 10 0 38 50 35 63 -1 4 3 7 8 7 9 0 32 42 34 63 1 4 7 11 14 16 11 7
10 9 -3 14 -9 4 -14 3 -10 -3z"/>
<path d="M15550 12334 c0 -8 5 -12 10 -9 6 3 10 10 10 16 0 5 -4 9 -10 9 -5 0
-10 -7 -10 -16z"/>
<path d="M15519 12323 c-1 -4 -1 -11 0 -15 0 -5 -8 -8 -20 -8 -11 0 -17 -4
-14 -10 10 -16 34 -11 45 9 7 13 7 22 0 26 -5 3 -11 3 -11 -2z"/>
<path d="M15452 12269 c-13 -5 -20 -13 -17 -19 3 -5 -3 -10 -14 -10 -12 0 -21
-5 -21 -11 0 -6 -7 -8 -16 -5 -8 3 -13 2 -10 -3 6 -10 -56 -61 -73 -61 -6 0
-11 -7 -11 -15 0 -9 -6 -12 -17 -8 -11 4 -14 3 -9 -5 4 -7 1 -12 -8 -12 -9 0
-16 -5 -16 -11 0 -6 -7 -9 -15 -5 -9 3 -15 0 -15 -9 0 -7 -5 -17 -12 -21 -7
-5 -9 -2 -3 7 4 8 -4 2 -17 -13 -14 -15 -28 -25 -32 -21 -3 3 -6 0 -6 -7 0 -7
-2 -11 -5 -8 -6 5 -32 -14 -76 -54 -10 -10 -19 -15 -19 -10 -1 4 -9 -3 -19
-14 -9 -12 -26 -24 -37 -26 -10 -2 -18 -10 -16 -17 1 -7 -2 -10 -8 -6 -5 3
-10 1 -10 -6 0 -7 -3 -9 -6 -6 -4 4 -15 -3 -25 -15 -11 -11 -19 -18 -19 -14 0
4 -7 0 -16 -8 -8 -9 -22 -16 -29 -16 -9 0 -12 -6 -8 -17 5 -12 2 -15 -10 -10
-9 3 -17 2 -17 -4 0 -6 -4 -8 -9 -4 -5 3 -12 -4 -16 -15 -4 -11 -10 -18 -14
-15 -8 5 -35 -15 -80 -57 -13 -13 -20 -16 -17 -8 4 8 -1 5 -12 -7 -11 -12 -22
-19 -26 -16 -3 4 -6 1 -6 -6 0 -7 -4 -9 -10 -6 -5 3 -10 -1 -10 -10 0 -9 -4
-14 -8 -11 -5 3 -16 -3 -25 -12 -27 -29 -45 -41 -51 -35 -3 4 -6 2 -6 -3 0 -5
-18 -20 -39 -34 -22 -13 -37 -28 -34 -34 4 -5 1 -6 -7 -1 -8 5 -17 2 -24 -7
-6 -8 -24 -23 -41 -34 -35 -22 -61 -42 -87 -66 -10 -10 -22 -18 -28 -18 -5 0
-20 -10 -34 -22 -40 -37 -55 -48 -66 -48 -5 0 -10 -4 -10 -10 0 -5 -6 -10 -14
-10 -8 0 -17 -7 -20 -16 -4 -9 -9 -14 -12 -11 -3 3 -14 -3 -25 -14 -11 -11
-25 -17 -32 -13 -7 4 -9 4 -5 0 8 -10 -14 -36 -24 -29 -5 2 -8 -1 -8 -6 0 -6
-7 -11 -15 -11 -8 0 -15 -7 -15 -16 0 -8 -4 -13 -9 -10 -4 3 -21 -5 -37 -19
-15 -13 -31 -22 -36 -19 -4 3 -8 -2 -8 -11 0 -9 -4 -14 -9 -11 -5 3 -12 -1
-15 -10 -4 -9 -9 -14 -13 -11 -3 4 -14 -3 -24 -15 -11 -11 -19 -18 -19 -14 0
4 -7 1 -15 -7 -8 -8 -30 -25 -50 -37 -19 -12 -35 -26 -35 -31 0 -6 -5 -7 -10
-4 -6 3 -13 -1 -16 -9 -3 -9 -10 -14 -14 -11 -5 3 -16 -5 -24 -17 -9 -12 -16
-19 -16 -15 0 5 -15 -6 -32 -22 -18 -17 -36 -31 -40 -31 -3 0 -20 -12 -37 -26
-17 -14 -31 -22 -31 -18 0 4 -9 -3 -20 -16 -11 -13 -20 -19 -20 -14 0 5 -5 2
-10 -6 -5 -8 -15 -15 -22 -15 -7 -1 -12 -6 -10 -13 1 -7 -4 -12 -11 -12 -7 0
-23 -9 -35 -20 -12 -12 -22 -17 -22 -13 0 4 -11 -5 -24 -20 -14 -16 -27 -27
-30 -25 -3 2 -15 -5 -26 -14 -11 -10 -25 -18 -30 -18 -6 0 -10 -4 -10 -8 0 -5
-11 -15 -25 -22 -13 -7 -22 -18 -18 -23 3 -6 1 -7 -4 -4 -9 6 -34 -9 -80 -48
-7 -5 -19 -15 -27 -22 -7 -6 -17 -9 -20 -6 -3 4 -6 1 -6 -5 0 -7 -7 -12 -16
-12 -9 0 -12 -5 -8 -12 5 -8 2 -9 -10 -5 -10 4 -15 3 -11 -3 3 -5 -5 -12 -19
-16 -17 -4 -23 -11 -19 -22 4 -9 2 -13 -4 -9 -6 4 -19 0 -27 -9 -9 -8 -16 -13
-16 -10 0 3 -9 -3 -20 -14 -11 -11 -26 -20 -34 -20 -8 0 -18 -9 -21 -20 -4
-11 -10 -18 -14 -16 -6 4 -24 -8 -78 -54 -7 -6 -13 -7 -13 -3 0 4 -5 0 -11 -9
-5 -10 -17 -18 -25 -18 -8 0 -12 -4 -9 -10 3 -5 -3 -10 -15 -10 -13 0 -19 -4
-14 -11 4 -7 1 -10 -6 -7 -7 2 -23 -5 -36 -16 -33 -31 -53 -46 -61 -48 -15 -4
-31 -23 -25 -32 3 -5 0 -6 -7 -2 -7 5 -18 0 -26 -10 -8 -11 -15 -15 -15 -10 0
5 -13 -4 -28 -21 -16 -16 -34 -27 -42 -25 -7 3 -10 0 -6 -7 4 -6 1 -11 -8 -11
-9 0 -16 -4 -16 -10 0 -5 -6 -10 -14 -10 -8 0 -16 -7 -20 -15 -3 -8 -10 -15
-17 -15 -6 0 -24 -10 -39 -22 -15 -13 -37 -30 -49 -38 -13 -8 -34 -25 -48 -38
-13 -12 -29 -20 -34 -17 -5 4 -9 2 -9 -3 0 -5 -17 -22 -37 -38 -20 -15 -33
-21 -29 -13 5 8 -5 -1 -21 -18 -16 -18 -33 -33 -39 -33 -6 0 -20 -9 -32 -20
-12 -12 -22 -18 -22 -15 0 4 -7 -1 -16 -9 -8 -9 -36 -30 -61 -48 -25 -17 -55
-40 -65 -50 -10 -10 -23 -16 -28 -13 -6 4 -10 -1 -10 -10 0 -9 -4 -14 -9 -10
-5 3 -17 -5 -25 -17 -9 -12 -16 -19 -16 -15 0 9 -116 -74 -156 -111 -8 -7 -14
-10 -14 -5 0 4 -4 3 -8 -2 -4 -6 -23 -22 -42 -35 -19 -14 -44 -32 -54 -42 -11
-10 -23 -18 -26 -18 -4 0 -22 -13 -40 -30 -18 -16 -37 -30 -42 -30 -9 0 -26
-12 -60 -45 -12 -12 -18 -14 -14 -5 4 8 -2 4 -13 -10 -11 -14 -21 -20 -21 -15
0 6 -5 2 -11 -7 -5 -10 -17 -18 -24 -18 -8 0 -15 -5 -15 -10 0 -6 -8 -14 -17
-17 -10 -4 -23 -12 -30 -17 -27 -24 -40 -33 -68 -52 -17 -10 -36 -27 -43 -36
-7 -10 -22 -18 -33 -18 -11 0 -17 -4 -14 -10 3 -5 -1 -10 -10 -10 -8 0 -18 -6
-21 -14 -3 -8 -17 -17 -30 -20 -14 -4 -22 -11 -19 -16 3 -6 1 -10 -5 -10 -11
0 -62 -33 -88 -57 -7 -7 -20 -13 -28 -13 -8 0 -13 -4 -9 -9 3 -5 -3 -12 -12
-15 -10 -4 -33 -20 -52 -36 -18 -16 -37 -27 -42 -24 -5 3 -9 -2 -9 -11 0 -9
-4 -14 -9 -10 -6 3 -14 -3 -20 -12 -6 -10 -11 -14 -11 -9 0 5 -11 -3 -24 -17
-13 -14 -26 -23 -29 -20 -3 3 -17 -5 -31 -18 -41 -39 -56 -50 -56 -43 0 4 -9
-3 -20 -16 -11 -13 -20 -20 -20 -16 0 7 -3 5 -62 -45 -21 -17 -38 -28 -38 -25
0 3 -8 -2 -18 -11 -40 -38 -76 -62 -85 -56 -6 3 -8 2 -5 -3 6 -9 -23 -42 -30
-36 -4 4 -45 -24 -68 -46 -8 -7 -14 -11 -14 -8 0 3 -9 -3 -20 -14 -12 -12 -26
-18 -32 -14 -7 4 -8 3 -4 -4 4 -7 2 -12 -4 -12 -6 0 -8 -5 -4 -12 4 -6 3 -8
-3 -5 -6 4 -40 -16 -77 -44 -36 -27 -66 -47 -66 -43 0 4 -11 -4 -24 -17 -51
-49 -69 -64 -62 -49 4 8 -4 2 -18 -13 -14 -15 -26 -25 -26 -22 0 6 -16 -6 -51
-37 -10 -10 -19 -15 -19 -10 0 4 -4 2 -8 -4 -4 -6 -22 -19 -40 -28 -18 -9 -30
-21 -27 -26 4 -6 -1 -10 -10 -10 -8 0 -23 -9 -32 -19 -9 -11 -20 -18 -25 -15
-4 3 -8 0 -8 -7 0 -7 -2 -10 -5 -7 -3 3 -20 -8 -36 -23 -17 -16 -36 -26 -42
-22 -5 3 -7 1 -3 -5 3 -6 -3 -13 -14 -17 -11 -3 -20 -11 -20 -16 0 -6 -4 -7
-10 -4 -5 3 -10 -1 -10 -10 0 -9 -4 -14 -9 -10 -5 3 -16 -2 -24 -10 -9 -8 -21
-15 -27 -15 -6 0 -8 -4 -5 -10 3 -5 -3 -10 -15 -10 -12 0 -18 -4 -15 -10 5 -9
-7 -14 -27 -11 -4 0 -10 -8 -13 -19 -4 -11 -11 -18 -16 -15 -5 4 -9 1 -9 -5 0
-6 -4 -9 -9 -6 -5 3 -12 -1 -15 -10 -3 -8 -10 -13 -14 -10 -5 3 -15 -4 -22
-15 -8 -10 -20 -19 -27 -19 -7 0 -13 -4 -13 -10 0 -5 -7 -10 -16 -10 -8 0 -12
-4 -9 -10 3 -5 -3 -10 -15 -10 -12 0 -18 -4 -15 -10 3 -5 0 -10 -8 -10 -8 0
-17 -7 -21 -15 -3 -8 -10 -15 -17 -15 -6 0 -21 -8 -34 -17 -12 -10 -33 -25
-45 -33 -13 -8 -30 -23 -39 -32 -8 -10 -20 -18 -26 -18 -6 0 -22 -10 -35 -22
-14 -13 -28 -22 -33 -20 -4 1 -10 -5 -13 -13 -4 -8 -12 -15 -19 -15 -6 0 -20
-9 -30 -20 -10 -11 -22 -17 -28 -13 -5 3 -7 2 -4 -4 5 -8 -53 -53 -117 -90
-11 -7 -20 -17 -18 -23 1 -5 -2 -9 -7 -8 -10 3 -45 -18 -73 -44 -10 -10 -23
-18 -28 -18 -5 0 -10 -4 -10 -10 0 -5 -7 -10 -15 -10 -8 0 -15 -4 -15 -10 0
-5 -7 -10 -15 -10 -8 0 -15 -4 -15 -8 0 -5 -11 -15 -25 -22 -13 -7 -22 -17
-19 -22 3 -5 2 -8 -3 -7 -19 3 -53 -15 -53 -28 0 -8 -4 -12 -9 -8 -6 3 -19 -5
-30 -17 -12 -12 -21 -18 -21 -13 0 5 -7 0 -15 -11 -8 -10 -15 -15 -15 -10 0 5
-9 -3 -21 -18 -11 -14 -25 -24 -30 -21 -5 4 -9 3 -9 -2 0 -4 -23 -23 -50 -42
-28 -19 -50 -38 -50 -43 0 -5 -4 -7 -8 -4 -5 3 -20 -6 -35 -20 -15 -14 -27
-22 -27 -18 0 4 -12 -5 -26 -20 -15 -14 -32 -26 -39 -26 -6 0 -20 -9 -30 -20
-10 -11 -22 -17 -28 -13 -6 4 -8 0 -4 -10 3 -10 2 -17 -4 -17 -19 0 -108 -64
-102 -73 3 -6 2 -7 -4 -4 -5 4 -20 -3 -31 -14 -12 -11 -22 -16 -22 -12 0 4 -7
-3 -16 -15 -8 -12 -20 -20 -25 -17 -5 4 -12 -1 -15 -9 -3 -9 -12 -16 -20 -16
-8 0 -14 -4 -14 -9 0 -5 -12 -16 -26 -26 -15 -9 -23 -11 -19 -4 5 8 4 10 -3 5
-7 -4 -12 -14 -12 -21 0 -9 -6 -12 -17 -8 -12 5 -14 3 -8 -7 6 -10 4 -12 -8
-7 -11 4 -17 1 -17 -7 0 -7 -11 -19 -25 -26 -14 -7 -25 -17 -25 -21 0 -5 -7
-6 -15 -3 -9 4 -15 0 -15 -9 0 -9 -8 -18 -17 -21 -10 -3 -31 -17 -47 -31 -16
-13 -33 -22 -37 -19 -5 3 -9 -2 -9 -10 0 -9 -7 -16 -15 -16 -8 0 -15 -5 -15
-10 0 -6 -6 -9 -12 -8 -7 2 -12 -3 -10 -10 1 -8 -2 -11 -8 -7 -5 3 -13 -1 -16
-9 -3 -9 -10 -13 -15 -10 -5 3 -9 0 -9 -6 0 -6 -4 -9 -8 -6 -5 3 -15 -4 -22
-15 -8 -10 -20 -19 -27 -19 -7 0 -13 -4 -13 -10 0 -5 -6 -10 -14 -10 -8 0 -17
-7 -20 -16 -4 -9 -9 -14 -13 -11 -3 4 -14 -3 -24 -15 -11 -11 -19 -17 -19 -12
0 5 -5 2 -10 -6 -5 -8 -15 -15 -22 -15 -7 -1 -12 -7 -10 -14 2 -9 -3 -11 -14
-7 -12 4 -15 2 -10 -9 3 -8 2 -14 -2 -13 -17 5 -52 -15 -52 -28 0 -8 -4 -13
-9 -9 -5 3 -24 -8 -42 -25 -19 -16 -38 -30 -44 -30 -5 0 -21 -12 -34 -25 -13
-14 -26 -23 -29 -20 -3 2 -16 -7 -29 -21 -12 -14 -23 -21 -23 -17 0 4 -6 1
-13 -7 -7 -8 -24 -21 -39 -29 -15 -8 -26 -19 -25 -25 1 -6 -5 -10 -14 -8 -9 1
-19 -5 -23 -13 -3 -9 -10 -13 -16 -10 -5 3 -10 2 -10 -4 0 -5 -15 -18 -32 -30
-18 -11 -43 -29 -55 -41 -13 -11 -23 -17 -23 -13 0 4 -4 3 -8 -2 -10 -14 -80
-66 -88 -65 -3 1 -14 -8 -23 -19 -10 -12 -23 -21 -29 -21 -6 0 -18 -10 -27
-22 -8 -13 -18 -21 -21 -20 -6 4 -48 -24 -80 -56 -13 -13 -24 -19 -24 -15 0 4
-7 -1 -15 -11 -8 -11 -15 -16 -15 -10 0 5 -7 0 -15 -10 -8 -11 -15 -17 -15
-13 0 4 -10 -1 -22 -12 -11 -11 -26 -18 -31 -14 -6 3 -7 1 -4 -4 7 -11 -20
-28 -38 -24 -5 2 -7 -1 -3 -5 5 -4 -9 -18 -30 -32 -20 -14 -50 -37 -66 -51
-16 -14 -25 -20 -21 -12 5 9 -2 7 -18 -5 -15 -10 -27 -25 -27 -32 0 -7 -4 -11
-9 -8 -5 3 -22 -7 -39 -22 -16 -15 -35 -26 -42 -24 -8 3 -10 0 -6 -7 4 -6 1
-11 -8 -11 -9 0 -16 -4 -16 -10 0 -5 -6 -10 -14 -10 -8 0 -17 -7 -20 -16 -3
-8 -10 -13 -15 -10 -5 3 -12 -1 -15 -10 -4 -9 -9 -14 -12 -11 -3 3 -17 -6 -30
-20 -13 -14 -24 -23 -24 -19 0 4 -7 0 -16 -8 -8 -9 -20 -13 -26 -10 -6 4 -9 3
-6 -2 3 -5 0 -15 -8 -22 -8 -7 -14 -9 -14 -5 0 4 -6 1 -13 -7 -7 -8 -32 -28
-57 -45 -25 -16 -51 -36 -58 -43 -8 -7 -18 -9 -24 -6 -6 4 -8 2 -5 -3 6 -9
-37 -47 -54 -48 -3 0 -13 -7 -22 -15 -31 -28 -46 -40 -52 -40 -4 0 -13 -7 -22
-15 -8 -8 -19 -12 -25 -9 -7 4 -8 2 -4 -4 4 -7 2 -12 -4 -12 -6 0 -8 -5 -4
-12 4 -7 3 -8 -4 -4 -6 4 -20 -2 -32 -14 -11 -11 -25 -20 -30 -20 -6 0 -10 -4
-10 -10 0 -5 -11 -12 -25 -16 -14 -3 -25 -10 -25 -14 0 -4 -19 -20 -42 -36
-24 -16 -52 -37 -62 -46 -10 -10 -22 -15 -26 -13 -3 2 -14 -7 -24 -20 -10 -14
-22 -22 -27 -20 -4 3 -15 -5 -23 -17 -9 -12 -16 -18 -16 -13 0 5 -9 -1 -21
-13 -11 -12 -25 -19 -31 -16 -6 4 -8 3 -4 -4 3 -6 -2 -13 -11 -16 -10 -3 -30
-17 -46 -31 -15 -15 -32 -23 -39 -19 -6 4 -8 3 -4 -4 3 -6 -3 -13 -14 -17 -11
-4 -17 -11 -14 -17 4 -6 3 -8 -3 -5 -6 4 -25 -7 -43 -23 -19 -17 -40 -30 -47
-30 -7 0 -13 -7 -13 -16 0 -8 -4 -12 -10 -9 -5 3 -17 -3 -27 -14 -9 -11 -20
-18 -25 -15 -4 3 -8 0 -8 -5 0 -6 -7 -11 -16 -11 -8 0 -13 -4 -10 -9 4 -5 -7
-15 -24 -23 -16 -7 -30 -20 -31 -28 0 -10 -2 -11 -6 -3 -3 8 -12 4 -27 -12
-13 -14 -26 -22 -29 -19 -3 3 -11 -4 -17 -16 -6 -12 -14 -19 -17 -16 -3 2 -10
1 -17 -5 -6 -5 -27 -23 -46 -39 -19 -16 -40 -30 -46 -30 -7 0 -14 -7 -18 -15
-3 -8 -11 -14 -18 -13 -7 2 -12 -2 -11 -9 2 -8 -4 -10 -14 -6 -11 4 -14 3 -9
-5 4 -7 1 -12 -8 -12 -8 0 -20 -8 -25 -17 -6 -10 -11 -14 -11 -10 0 5 -7 2
-15 -5 -32 -29 -45 -39 -45 -33 0 3 -9 -4 -20 -15 -11 -11 -27 -20 -35 -20 -9
0 -12 -6 -8 -17 4 -9 2 -14 -3 -11 -12 8 -48 -13 -51 -29 -3 -15 13 -17 22 -4
3 6 17 6 35 1 19 -5 30 -5 30 1 0 6 5 7 12 3 14 -9 223 -8 237 1 6 3 11 2 11
-3 0 -5 7 -9 15 -9 8 0 15 4 15 9 0 5 5 6 11 3 16 -11 69 -12 69 -2 0 4 5 5
11 2 15 -10 99 -11 99 -2 0 5 5 5 12 1 14 -9 223 -8 237 1 6 3 11 2 11 -3 0
-5 7 -9 15 -9 8 0 15 4 15 9 0 5 5 6 11 3 16 -11 69 -12 69 -2 0 4 5 5 11 2
15 -10 99 -11 99 -2 0 5 5 5 12 1 14 -9 223 -8 237 1 6 3 11 2 11 -3 0 -5 7
-9 15 -9 8 0 15 4 15 9 0 5 5 6 11 3 16 -11 69 -12 69 -2 0 4 5 5 11 2 15 -10
99 -11 99 -2 0 5 5 5 12 1 14 -9 223 -8 237 1 6 3 11 2 11 -3 0 -5 7 -9 15 -9
8 0 15 4 15 9 0 5 5 6 11 3 16 -11 69 -12 69 -2 0 4 5 5 11 2 15 -10 99 -11
99 -2 0 5 5 5 12 1 14 -9 223 -8 237 1 6 3 11 2 11 -3 0 -5 7 -9 15 -9 8 0 15
4 15 9 0 5 5 6 11 3 16 -11 69 -12 69 -2 0 4 5 5 11 1 14 -8 274 -8 288 1 6 3
11 3 11 -2 0 -9 294 -8 310 2 5 3 10 3 10 -2 0 -9 294 -8 310 2 5 3 10 3 10
-2 0 -9 294 -8 310 2 5 3 10 3 10 -2 0 -4 20 -8 45 -8 25 0 45 4 45 8 0 5 5 5
11 2 16 -11 69 -12 69 -2 0 4 5 5 11 2 15 -10 99 -11 99 -2 0 5 5 5 12 1 14
-9 223 -8 237 1 6 3 11 2 11 -3 0 -5 7 -9 15 -9 8 0 15 4 15 9 0 5 5 6 11 3
16 -11 69 -12 69 -2 0 4 5 5 11 2 15 -10 99 -11 99 -2 0 5 5 5 12 1 14 -9 223
-8 237 1 6 3 11 2 11 -3 0 -5 7 -9 15 -9 8 0 15 4 15 9 0 5 5 6 11 3 16 -11
69 -12 69 -2 0 4 5 5 11 2 15 -10 99 -11 99 -2 0 5 5 5 12 1 14 -9 223 -8 237
1 6 3 11 2 11 -3 0 -5 7 -9 15 -9 8 0 15 4 15 9 0 5 5 6 11 3 16 -11 69 -12
69 -2 0 4 5 5 11 2 15 -10 99 -11 99 -2 0 5 5 5 12 1 14 -9 223 -8 237 1 6 3
11 2 11 -3 0 -5 7 -9 15 -9 8 0 15 4 15 9 0 5 5 6 11 3 16 -11 69 -12 69 -2 0
4 5 5 11 2 15 -10 99 -11 99 -2 0 5 5 5 12 1 14 -9 223 -8 237 1 6 3 11 2 11
-3 0 -5 7 -9 15 -9 8 0 15 4 15 9 0 5 5 6 11 3 16 -11 69 -12 69 -2 0 4 5 5
11 2 15 -10 99 -11 99 -2 0 5 5 5 12 1 14 -9 223 -8 237 1 6 3 11 2 11 -3 0
-5 7 -9 15 -9 8 0 15 4 15 9 0 5 5 6 11 3 16 -11 69 -12 69 -2 0 4 5 5 11 2
15 -10 99 -11 99 -2 0 5 5 5 12 1 14 -9 223 -8 237 1 6 3 11 2 11 -3 0 -5 7
-9 15 -9 8 0 15 4 15 9 0 5 5 6 11 3 16 -11 69 -12 69 -2 0 4 5 5 11 2 15 -10
99 -11 99 -2 0 5 5 5 12 1 14 -9 223 -8 237 1 6 3 11 3 11 -2 0 -4 14 -8 30
-8 17 0 30 4 30 8 0 5 5 5 12 1 14 -9 223 -8 237 1 6 3 11 2 11 -3 0 -5 7 -9
15 -9 8 0 15 4 15 9 0 5 5 6 11 3 16 -11 69 -12 69 -2 0 4 5 5 11 2 15 -10 99
-11 99 -2 0 5 5 5 12 1 14 -9 223 -8 237 1 6 3 11 2 11 -3 0 -5 7 -9 15 -9 8
0 15 4 15 9 0 5 5 6 11 3 16 -11 69 -12 69 -2 0 4 5 5 11 2 15 -10 99 -11 99
-2 0 5 6 5 12 1 7 -5 23 -8 35 -7 13 1 39 1 58 2 19 1 34 5 33 10 -2 5 1 11 6
12 15 6 63 57 70 74 3 9 10 14 14 11 5 -3 14 6 20 19 7 14 19 25 27 25 9 0 13
4 10 10 -3 6 -1 10 5 10 6 0 8 5 5 10 -4 6 -3 9 2 8 11 -4 63 47 63 61 0 6 7
8 15 5 10 -4 15 0 15 16 0 11 5 18 10 15 6 -3 10 1 10 9 0 8 5 18 12 22 7 5 8
2 3 -7 -4 -8 1 -5 12 6 10 11 20 23 21 28 3 12 37 44 43 41 3 -2 12 8 19 21 7
13 17 22 22 19 4 -3 8 -1 8 4 0 16 62 72 73 65 6 -3 7 -1 3 5 -7 12 137 162
157 162 8 0 7 4 -3 10 -9 6 -10 10 -3 10 7 0 30 19 53 42 55 59 52 56 80 79
14 11 18 18 10 14 -8 -4 -6 1 4 9 11 9 24 16 29 16 4 0 6 4 2 9 -3 5 4 13 16
16 13 4 18 12 15 21 -3 8 -2 13 2 10 5 -3 14 4 22 14 8 10 17 17 22 14 4 -3 8
0 8 5 0 14 43 57 53 53 7 -2 10 12 5 24 -2 3 10 12 25 20 15 8 25 19 22 24 -3
5 5 12 19 16 17 4 23 11 19 22 -4 9 -2 13 4 9 11 -7 45 28 36 37 -4 3 1 6 11
6 9 0 14 5 11 10 -3 6 1 10 10 10 8 0 20 11 27 25 6 13 15 22 19 19 5 -3 9 -1
9 4 0 5 81 92 180 192 99 101 180 187 180 191 0 5 6 9 13 9 6 1 26 18 42 39
17 21 33 37 38 34 4 -2 7 3 7 11 0 9 7 16 17 16 9 0 14 3 10 6 -8 9 36 52 47
46 5 -3 7 2 3 11 -3 10 -2 17 4 17 6 0 23 13 39 30 15 16 31 26 35 22 5 -4 5
-1 1 6 -4 7 -1 15 8 18 9 3 13 10 10 15 -3 5 0 9 6 9 15 0 40 25 40 40 0 6 3
9 8 7 4 -3 13 1 20 9 7 8 11 14 8 14 -2 0 21 25 51 55 30 30 59 55 64 55 5 0
9 4 9 9 0 5 45 55 100 110 55 56 97 101 93 101 -4 0 7 11 25 23 17 13 29 27
25 30 -3 4 1 7 11 7 11 0 14 4 10 12 -5 8 -2 9 10 5 9 -4 14 -3 11 2 -3 5 5
17 17 25 12 9 20 16 16 16 -3 0 8 15 25 33 18 18 35 31 40 29 4 -2 7 4 7 12 0
9 8 16 17 16 9 0 14 3 10 6 -3 3 37 48 88 99 52 51 91 96 88 99 -4 3 0 6 8 6
8 0 23 13 34 29 10 16 22 28 25 26 4 -2 14 9 23 25 10 16 26 32 37 35 11 4 20
11 20 16 0 5 23 32 50 59 28 27 50 53 50 57 0 5 -16 8 -35 8 -19 0 -35 -3 -35
-7 0 -5 -5 -8 -11 -8 -5 0 -8 4 -5 8 7 12 -41 7 -57 -7 -9 -6 -18 -8 -21 -3
-6 10 -46 10 -63 -1 -6 -4 -14 -3 -18 3 -4 7 -12 7 -26 0 -13 -8 -19 -7 -19 0
0 7 -6 8 -18 1 -10 -5 -24 -6 -32 -1 -7 4 -24 4 -38 -1 -16 -6 -29 -6 -38 2
-11 9 -15 8 -20 -4 -5 -13 -9 -14 -25 -4 -13 8 -22 9 -27 2 -4 -6 -55 -10
-117 -10 -60 0 -117 -3 -125 -6 -8 -4 -24 -3 -35 1 -11 4 -28 3 -37 -2 -12 -6
-18 -5 -18 3 0 7 -4 8 -12 2 -7 -5 -31 -9 -53 -8 -22 0 -43 -4 -47 -10 -5 -6
-8 -5 -8 3 0 6 -7 12 -15 12 -8 0 -15 -6 -15 -12 0 -9 -4 -8 -10 2 -8 12 -10
12 -10 1 0 -11 -3 -11 -15 -1 -12 10 -15 10 -15 0 0 -9 -3 -10 -13 -2 -10 9
-19 8 -35 -3 -11 -9 -23 -11 -26 -7 -5 9 -88 7 -112 -2 -7 -3 -16 -1 -19 5 -4
5 -10 7 -14 5 -15 -9 -61 -15 -61 -7 0 4 -7 8 -15 8 -8 0 -12 -3 -10 -7 2 -3
-16 -6 -41 -7 -24 -1 -46 3 -49 8 -9 13 -25 11 -25 -3 0 -7 -11 -14 -25 -14
-15 -1 -22 2 -18 9 4 6 1 7 -7 2 -8 -5 -52 -10 -97 -11 -46 -1 -86 -4 -89 -7
-3 -3 -19 -1 -35 3 -16 5 -29 6 -29 2 0 -4 -27 -7 -60 -7 -33 -1 -60 3 -60 8
0 4 -5 5 -10 2 -6 -4 -7 -11 -4 -17 4 -6 -1 -6 -14 1 -27 14 -35 14 -26 -1 5
-9 2 -9 -9 1 -9 7 -17 9 -17 3 0 -5 -10 -8 -22 -4 -16 4 -19 2 -13 -9 7 -11 6
-12 -6 -3 -15 12 -113 13 -125 2 -4 -4 -15 -3 -25 2 -12 7 -20 7 -24 0 -5 -8
-11 -8 -19 -1 -7 6 -16 8 -19 5 -11 -11 -77 -11 -77 0 0 6 -4 6 -9 -2 -9 -14
-32 -13 -43 3 -5 6 -8 5 -8 -2 0 -11 -32 -15 -123 -13 -20 0 -26 -3 -21 -12 6
-10 5 -10 -8 0 -17 14 -39 13 -50 -3 -5 -7 -8 -6 -8 0 0 6 -9 11 -20 12 -11 1
-20 -1 -20 -5 0 -4 -58 -6 -130 -6 -93 1 -128 -2 -123 -10 4 -6 -1 -5 -10 3
-13 10 -17 10 -17 1 0 -9 -3 -10 -13 -2 -10 9 -19 8 -34 -3 -11 -8 -23 -11
-27 -7 -10 10 -78 10 -98 0 -10 -5 -18 -5 -18 -1 0 4 -16 8 -35 8 -19 0 -35
-3 -35 -6 0 -8 -33 -5 -48 5 -7 4 -12 2 -12 -5 0 -8 -4 -8 -15 1 -10 8 -15 9
-15 2 0 -7 -7 -9 -17 -5 -11 5 -14 3 -8 -6 6 -10 3 -11 -12 -3 -11 6 -25 7
-33 2 -17 -10 -42 -1 -34 12 4 6 -4 3 -18 -6 -21 -14 -27 -14 -52 -1 -21 11
-26 12 -18 2 9 -10 4 -13 -23 -14 -24 -1 -33 3 -28 10 5 9 3 9 -8 1 -8 -6 -48
-12 -89 -14 -41 -1 -102 -3 -135 -4 -33 -2 -66 2 -73 7 -7 6 -12 6 -11 1 4
-21 -2 -28 -12 -14 -8 12 -12 12 -16 2 -4 -10 -8 -10 -19 -1 -11 9 -14 8 -14
-7 0 -13 -3 -15 -8 -7 -5 7 -19 13 -33 13 -65 -1 -69 -1 -62 -13 5 -9 3 -9 -8
-1 -14 10 -86 11 -96 0 -3 -2 -16 -1 -29 4 -13 5 -24 6 -24 2 0 -4 -11 -7 -25
-7 -14 0 -25 4 -25 9 0 5 -6 3 -14 -3 -16 -13 -37 -11 -48 4 -5 6 -8 6 -8 -1
0 -6 -10 -12 -22 -13 -13 0 -42 -2 -66 -3 -23 -2 -42 0 -42 4 0 4 -7 5 -15 2
-8 -4 -12 -11 -8 -18 5 -8 3 -8 -8 0 -13 10 -140 10 -216 0 -19 -2 -33 1 -33
6 0 6 -7 5 -16 -3 -13 -10 -17 -10 -25 2 -6 10 -9 11 -9 1 0 -7 -4 -11 -9 -7
-5 3 -12 1 -16 -5 -4 -6 -11 -7 -18 -3 -17 11 -57 10 -57 -2 0 -5 -5 -3 -10 5
-9 13 -10 13 -10 0 0 -13 -1 -13 -10 0 -7 11 -10 11 -10 2 0 -9 -5 -10 -17 -4
-10 5 -27 6 -38 2 -11 -4 -26 -3 -34 4 -12 9 -13 8 -6 -3 6 -11 4 -13 -8 -8
-10 3 -17 2 -17 -4 0 -6 -4 -8 -8 -5 -16 10 -62 15 -62 7 0 -9 -43 -6 -59 4
-6 3 -11 2 -11 -4 0 -7 -8 -7 -25 -1 -17 6 -25 6 -25 -1 0 -6 -9 -8 -19 -4
-11 3 -22 1 -26 -5 -3 -6 -12 -7 -18 -3 -15 10 -35 10 -69 1 -15 -3 -30 -2
-34 3 -3 5 -11 6 -17 2 -7 -4 -32 -8 -57 -8 -25 0 -51 -4 -57 -8 -7 -5 -13 -4
-13 2 0 6 -11 6 -30 1 -16 -5 -32 -5 -35 -1 -2 5 -23 5 -45 1 -27 -5 -40 -4
-40 4 0 8 -2 8 -8 0 -4 -6 -26 -10 -49 -9 -27 2 -40 -1 -36 -8 4 -6 1 -7 -6
-3 -20 13 -61 14 -61 3 0 -7 -4 -7 -12 1 -9 9 -15 7 -25 -6 -13 -15 -14 -15
-9 0 4 13 0 15 -22 9 -15 -5 -37 -7 -49 -5 -14 2 -23 -1 -23 -9 0 -7 -3 -8 -8
-2 -10 15 -74 16 -65 1 4 -7 1 -7 -9 1 -8 7 -17 12 -19 10 -2 -1 4 6 13 16 9
9 22 17 28 17 6 0 9 3 7 8 -3 4 10 18 29 32 18 14 34 32 34 40 0 13 1 13 10 0
6 -10 10 -11 10 -3 0 16 65 83 80 83 6 0 9 3 7 8 -5 7 23 38 33 36 3 -1 4 2 2
7 -1 5 3 9 9 9 6 0 26 15 44 34 18 19 36 32 39 29 3 -4 6 0 6 8 0 8 13 23 29
34 16 10 27 23 25 27 -3 4 0 8 6 8 16 0 80 67 72 76 -4 4 -2 4 5 0 7 -4 19 4
29 19 9 14 22 25 29 25 8 0 16 8 19 18 4 11 17 25 31 32 13 7 21 18 18 23 -4
6 0 8 10 4 11 -4 17 -1 17 8 0 8 11 20 24 27 14 7 25 16 26 20 1 8 70 78 70
72 0 -3 39 34 86 81 47 47 91 82 97 78 5 -3 7 -1 4 4 -8 13 17 36 28 25 5 -4
5 1 2 11 -4 9 -2 17 4 17 6 0 32 22 60 49 27 26 49 47 49 45 0 -2 34 30 76 71
41 42 80 73 85 70 5 -4 6 2 2 12 -3 10 -2 15 2 11 5 -5 15 1 22 12 8 11 19 17
25 14 7 -4 8 -2 4 5 -4 6 0 14 8 17 9 3 16 13 16 21 0 8 4 12 8 9 4 -3 21 11
37 30 16 19 33 34 38 34 11 0 47 39 47 52 0 4 7 8 15 8 8 0 22 11 31 25 9 14
20 22 25 19 5 -3 8 0 7 8 -2 7 3 12 9 11 7 -2 12 0 10 5 -1 4 1 7 5 7 4 0 18
15 31 32 13 18 27 30 30 26 4 -3 7 2 7 12 0 10 3 16 6 12 3 -3 27 15 53 41 25
26 49 46 53 45 5 -2 8 3 8 10 0 8 10 22 23 33 l22 19 -20 -25 -20 -25 27 24
c15 13 25 28 22 32 -3 5 1 9 9 9 8 0 18 7 21 16 3 8 11 12 16 9 6 -4 9 -3 8 2
-1 4 23 33 55 64 31 31 57 54 57 52 0 -1 27 24 60 57 33 33 65 60 71 60 5 0 8
4 5 9 -3 5 2 15 11 22 14 12 16 12 8 0 -4 -8 28 22 71 66 43 43 82 80 87 81 4
1 6 5 5 8 -2 3 9 12 25 20 15 8 27 22 27 31 0 9 3 13 6 10 4 -3 20 8 35 24 16
17 29 27 30 23 0 -5 4 -1 8 9 4 10 10 18 14 18 12 -2 35 23 30 32 -2 4 0 7 5
7 6 0 40 29 76 65 36 36 70 65 76 65 5 0 10 7 10 15 0 8 4 15 8 15 13 0 69 50
57 50 -5 1 2 8 18 16 15 8 27 19 27 25 0 6 5 7 10 4 6 -3 10 1 10 9 0 9 7 16
16 16 8 0 12 5 9 10 -3 6 -2 10 2 10 5 0 52 41 104 91 52 50 96 92 99 93 3 0
4 4 3 8 -2 4 6 10 17 13 11 4 18 11 15 16 -4 5 1 9 9 9 9 0 16 4 16 9 0 5 9
12 19 16 14 4 18 12 14 23 -3 9 -3 14 1 10 11 -9 109 76 99 86 -4 3 -1 6 5 6
6 0 39 27 71 59 33 33 70 65 81 71 11 6 18 15 15 20 -3 5 6 12 20 16 17 4 24
11 21 20 -5 13 6 18 27 15 7 -1 11 15 8 31 0 5 3 7 7 5 13 -3 91 70 84 79 -4
4 1 4 10 1 10 -3 17 -3 15 2 -3 10 102 111 115 111 5 0 7 4 3 9 -3 5 9 20 27
32 18 12 44 34 57 48 13 14 27 25 31 24 5 -2 12 6 15 17 4 11 13 20 21 20 8 0
13 4 10 8 -3 5 6 15 19 22 13 7 22 17 19 22 -3 4 -1 8 5 8 5 0 37 27 71 60 34
33 66 60 71 60 5 0 9 7 9 16 0 8 4 13 9 9 5 -3 12 4 16 14 4 13 11 18 22 14
12 -5 15 -2 10 10 -6 15 3 22 26 18 4 0 7 3 7 7 0 13 41 57 50 55 5 -2 12 6
15 17 3 10 14 22 24 25 10 3 33 23 51 45 19 22 40 40 48 40 9 0 13 3 10 6 -7
6 39 54 52 54 6 0 10 7 10 15 0 8 6 14 13 13 6 -2 11 3 9 10 -1 6 5 12 13 12
8 0 15 7 15 16 0 8 4 13 9 10 5 -3 12 1 15 10 3 8 10 13 14 10 5 -3 14 5 21
17 7 12 25 31 42 42 16 11 32 28 35 38 3 9 10 17 16 17 6 0 38 27 70 60 32 33
63 60 68 60 6 0 9 4 5 9 -3 5 4 12 15 16 11 3 20 13 20 21 0 8 4 13 8 12 4 -2
22 12 39 30 18 17 37 32 43 32 6 0 8 5 5 10 -3 6 -2 10 3 10 5 0 48 38 96 85
48 47 91 85 97 85 5 0 9 7 9 16 0 8 5 12 10 9 6 -3 10 1 10 10 0 9 5 13 11 10
6 -4 13 2 16 14 3 12 9 21 14 21 5 0 29 20 54 44 25 25 45 43 45 41 0 -1 45
41 100 95 55 53 101 95 104 93 2 -3 7 5 11 16 3 12 10 19 15 16 5 -3 14 4 20
15 6 11 15 18 21 15 5 -4 9 -1 9 5 0 15 26 41 34 33 3 -4 6 1 6 10 0 10 4 17
8 17 5 0 43 34 86 75 43 41 82 75 87 75 6 0 8 3 6 8 -2 4 7 17 20 29 13 12 23
20 23 17 0 -2 11 6 24 18 13 13 21 26 19 31 -2 4 1 7 7 7 7 0 26 15 44 33 18
17 51 48 73 67 51 43 48 61 -5 39z"/>
</g>
</svg>
